<svg width="398" height="392" viewBox="0 0 398 392" fill="none" xmlns="http://www.w3.org/2000/svg">
<g filter="url(#filter0_d)">
<rect x="62" y="26" width="305.385" height="331.812" fill="white"/>
</g>
<rect x="88.4275" y="64.1731" width="220.229" height="8.80917" fill="#E8F6FF"/>
<rect x="88.4275" y="96.4734" width="132.138" height="8.80917" fill="#C2E8FF"/>
<rect x="88.4275" y="128.773" width="220.229" height="8.80917" fill="#E8F6FF"/>
<rect x="88.4275" y="161.074" width="132.138" height="8.80917" fill="#C2E8FF"/>
<g filter="url(#filter1_d)">
<rect x="109" y="75" width="215.385" height="234.024" fill="white"/>
</g>
<rect x="127.639" y="101.923" width="155.325" height="6.21302" fill="#E8F6FF"/>
<rect x="127.639" y="124.704" width="93.1953" height="6.21302" fill="#C2E8FF"/>
<rect x="127.639" y="147.485" width="155.325" height="6.21302" fill="#E8F6FF"/>
<rect x="127.639" y="170.266" width="93.1953" height="6.21302" fill="#C2E8FF"/>
<rect y="216" width="260" height="50" fill="#0477BD" fill-opacity="0.6"/>
<rect x="97" y="288" width="240" height="40" fill="#27AE60" fill-opacity="0.6"/>
<path d="M222.404 238.324C222.404 238.996 222.242 239.626 221.918 240.214C221.606 240.802 221.108 241.276 220.424 241.636C219.752 241.996 218.9 242.176 217.868 242.176H215.762V247H213.242V234.436H217.868C218.84 234.436 219.668 234.604 220.352 234.94C221.036 235.276 221.546 235.738 221.882 236.326C222.23 236.914 222.404 237.58 222.404 238.324ZM217.76 240.142C218.456 240.142 218.972 239.986 219.308 239.674C219.644 239.35 219.812 238.9 219.812 238.324C219.812 237.1 219.128 236.488 217.76 236.488H215.762V240.142H217.76ZM228.585 234.436C229.905 234.436 231.063 234.694 232.059 235.21C233.067 235.726 233.841 236.464 234.381 237.424C234.933 238.372 235.209 239.476 235.209 240.736C235.209 241.996 234.933 243.1 234.381 244.048C233.841 244.984 233.067 245.71 232.059 246.226C231.063 246.742 229.905 247 228.585 247H224.193V234.436H228.585ZM228.495 244.858C229.815 244.858 230.835 244.498 231.555 243.778C232.275 243.058 232.635 242.044 232.635 240.736C232.635 239.428 232.275 238.408 231.555 237.676C230.835 236.932 229.815 236.56 228.495 236.56H226.713V244.858H228.495ZM244.854 234.436V236.47H239.616V239.692H243.63V241.69H239.616V247H237.096V234.436H244.854Z" fill="white"/>
<path d="M280.762 303.47V306.62H284.992V308.618H280.762V311.948H285.532V314H278.242V301.418H285.532V303.47H280.762ZM293.33 314L291.278 310.904L289.46 314H286.76L290.018 308.996L286.724 304.028H289.568L291.602 307.106L293.438 304.028H296.138L292.862 308.996L296.174 314H293.33ZM296.895 309.014C296.895 307.982 297.105 307.082 297.525 306.314C297.945 305.534 298.527 304.934 299.271 304.514C300.015 304.082 300.867 303.866 301.827 303.866C303.063 303.866 304.083 304.178 304.887 304.802C305.703 305.414 306.249 306.278 306.525 307.394H303.807C303.663 306.962 303.417 306.626 303.069 306.386C302.733 306.134 302.313 306.008 301.809 306.008C301.089 306.008 300.519 306.272 300.099 306.8C299.679 307.316 299.469 308.054 299.469 309.014C299.469 309.962 299.679 310.7 300.099 311.228C300.519 311.744 301.089 312.002 301.809 312.002C302.829 312.002 303.495 311.546 303.807 310.634H306.525C306.249 311.714 305.703 312.572 304.887 313.208C304.071 313.844 303.051 314.162 301.827 314.162C300.867 314.162 300.015 313.952 299.271 313.532C298.527 313.1 297.945 312.5 297.525 311.732C297.105 310.952 296.895 310.046 296.895 309.014ZM317.641 308.798C317.641 309.158 317.617 309.482 317.569 309.77H310.279C310.339 310.49 310.591 311.054 311.035 311.462C311.479 311.87 312.025 312.074 312.673 312.074C313.609 312.074 314.275 311.672 314.671 310.868H317.389C317.101 311.828 316.549 312.62 315.733 313.244C314.917 313.856 313.915 314.162 312.727 314.162C311.767 314.162 310.903 313.952 310.135 313.532C309.379 313.1 308.785 312.494 308.353 311.714C307.933 310.934 307.723 310.034 307.723 309.014C307.723 307.982 307.933 307.076 308.353 306.296C308.773 305.516 309.361 304.916 310.117 304.496C310.873 304.076 311.743 303.866 312.727 303.866C313.675 303.866 314.521 304.07 315.265 304.478C316.021 304.886 316.603 305.468 317.011 306.224C317.431 306.968 317.641 307.826 317.641 308.798ZM315.031 308.078C315.019 307.43 314.785 306.914 314.329 306.53C313.873 306.134 313.315 305.936 312.655 305.936C312.031 305.936 311.503 306.128 311.071 306.512C310.651 306.884 310.393 307.406 310.297 308.078H315.031ZM322 300.68V314H319.48V300.68H322Z" fill="white"/>
<defs>
<filter id="filter0_d" x="32" y="0" width="365.385" height="391.812" filterUnits="userSpaceOnUse" color-interpolation-filters="sRGB">
<feFlood flood-opacity="0" result="BackgroundImageFix"/>
<feColorMatrix in="SourceAlpha" type="matrix" values="0 0 0 0 0 0 0 0 0 0 0 0 0 0 0 0 0 0 127 0"/>
<feOffset dy="4"/>
<feGaussianBlur stdDeviation="15"/>
<feColorMatrix type="matrix" values="0 0 0 0 0.0156863 0 0 0 0 0.466667 0 0 0 0 0.741176 0 0 0 0.3 0"/>
<feBlend mode="normal" in2="BackgroundImageFix" result="effect1_dropShadow"/>
<feBlend mode="normal" in="SourceGraphic" in2="effect1_dropShadow" result="shape"/>
</filter>
<filter id="filter1_d" x="79" y="49" width="275.385" height="294.024" filterUnits="userSpaceOnUse" color-interpolation-filters="sRGB">
<feFlood flood-opacity="0" result="BackgroundImageFix"/>
<feColorMatrix in="SourceAlpha" type="matrix" values="0 0 0 0 0 0 0 0 0 0 0 0 0 0 0 0 0 0 127 0"/>
<feOffset dy="4"/>
<feGaussianBlur stdDeviation="15"/>
<feColorMatrix type="matrix" values="0 0 0 0 0.0156863 0 0 0 0 0.466667 0 0 0 0 0.741176 0 0 0 0.3 0"/>
<feBlend mode="normal" in2="BackgroundImageFix" result="effect1_dropShadow"/>
<feBlend mode="normal" in="SourceGraphic" in2="effect1_dropShadow" result="shape"/>
</filter>
</defs>
</svg>
