<?xml version="1.0" standalone="no"?>
<!DOCTYPE svg PUBLIC "-//W3C//DTD SVG 20010904//EN"
 "http://www.w3.org/TR/2001/REC-SVG-20010904/DTD/svg10.dtd">
<svg version="1.0" xmlns="http://www.w3.org/2000/svg"
 width="260.000000pt" height="260.000000pt" viewBox="0 0 260.000000 260.000000"
 preserveAspectRatio="xMidYMid meet">
<metadata>
Created by potrace 1.11, written by Peter Selinger 2001-2013
</metadata>
<g transform="translate(0.000000,260.000000) scale(0.100000,-0.100000)"
fill="#000000" stroke="none">
<path d="M6 2270 c-2 -3 42 -117 96 -255 55 -137 147 -369 205 -515 58 -146
111 -278 118 -295 6 -16 25 -61 40 -100 15 -38 33 -83 40 -100 7 -16 46 -113
86 -215 137 -350 180 -454 189 -460 4 -3 241 -5 526 -5 l518 0 162 405 c291
732 566 1424 589 1485 l23 60 -518 0 c-285 0 -520 -2 -523 -5 -3 -4 157 -416
222 -570 20 -48 193 -486 216 -545 l22 -60 -121 -307 c-66 -169 -123 -308
-126 -308 -6 0 -42 90 -305 750 -352 886 -405 1020 -405 1029 0 6 -3 12 -7 12
-26 4 -1045 3 -1047 -1z"/>
</g>
</svg>
