<svg width="64" height="64" viewBox="0 0 64 64" fill="none" xmlns="http://www.w3.org/2000/svg">
<path d="M11 40H9C8.73478 40 8.48043 40.1054 8.29289 40.2929C8.10536 40.4804 8 40.7348 8 41C8 41.2652 8.10536 41.5196 8.29289 41.7071C8.48043 41.8946 8.73478 42 9 42H11C11.2652 42 11.5196 41.8946 11.7071 41.7071C11.8946 41.5196 12 41.2652 12 41C12 40.7348 11.8946 40.4804 11.7071 40.2929C11.5196 40.1054 11.2652 40 11 40Z" fill="#0477BD"/>
<path d="M14 41C14 41.2652 14.1054 41.5196 14.2929 41.7071C14.4804 41.8946 14.7348 42 15 42H17C17.2652 42 17.5196 41.8946 17.7071 41.7071C17.8946 41.5196 18 41.2652 18 41C18 40.7348 17.8946 40.4804 17.7071 40.2929C17.5196 40.1054 17.2652 40 17 40H15C14.7348 40 14.4804 40.1054 14.2929 40.2929C14.1054 40.4804 14 40.7348 14 41Z" fill="#0477BD"/>
<path d="M21 42H23C23.2652 42 23.5196 41.8946 23.7071 41.7071C23.8946 41.5196 24 41.2652 24 41C24 40.7348 23.8946 40.4804 23.7071 40.2929C23.5196 40.1054 23.2652 40 23 40H21C20.7348 40 20.4804 40.1054 20.2929 40.2929C20.1054 40.4804 20 40.7348 20 41C20 41.2652 20.1054 41.5196 20.2929 41.7071C20.4804 41.8946 20.7348 42 21 42Z" fill="#0477BD"/>
<path d="M56.9999 52.1001V49.0001C56.9999 48.7348 56.8945 48.4805 56.707 48.2929C56.5195 48.1054 56.2651 48.0001 55.9999 48.0001H48.9999V46.0001H57.9999C58.2651 46.0001 58.5195 45.8947 58.707 45.7072C58.8945 45.5196 58.9999 45.2653 58.9999 45.0001V37.0001C58.9999 36.7348 58.8945 36.4805 58.707 36.2929C58.5195 36.1054 58.2651 36.0001 57.9999 36.0001H48.9999V31.0001C48.9999 30.7348 48.8945 30.4805 48.707 30.2929C48.5195 30.1054 48.2651 30.0001 47.9999 30.0001H38.9999V28.0001H45.9999C48.3675 27.9965 50.657 27.153 52.461 25.6197C54.2651 24.0864 55.4665 21.9627 55.8516 19.6266C56.2368 17.2906 55.7805 14.8936 54.5641 12.8624C53.3477 10.8311 51.4501 9.29738 49.2089 8.53405C48.3681 6.78599 46.9209 5.40293 45.1366 4.64228C43.3522 3.88162 41.3522 3.79518 39.5089 4.39905C38.043 3.35687 36.3764 2.63101 34.6149 2.2676C32.8534 1.90418 31.0356 1.91117 29.2769 2.2881C27.5183 2.66503 25.8573 3.40368 24.3994 4.45709C22.9416 5.5105 21.7189 6.85565 20.8089 8.40705C19.8969 8.13726 18.9509 8.00019 17.9999 8.00005C15.3477 8.00005 12.8042 9.05362 10.9288 10.929C9.05346 12.8043 7.99989 15.3479 7.99989 18.0001C7.99989 20.6522 9.05346 23.1958 10.9288 25.0711C12.8042 26.9465 15.3477 28.0001 17.9999 28.0001H24.9999V30.0001H15.9999C15.7347 30.0001 15.4803 30.1054 15.2928 30.2929C15.1052 30.4805 14.9999 30.7348 14.9999 31.0001V36.0001H5.99989C5.73467 36.0001 5.48032 36.1054 5.29278 36.2929C5.10525 36.4805 4.99989 36.7348 4.99989 37.0001V45.0001C4.99989 45.2653 5.10525 45.5196 5.29278 45.7072C5.48032 45.8947 5.73467 46.0001 5.99989 46.0001H14.9999V48.0001H7.99989C7.73467 48.0001 7.48032 48.1054 7.29278 48.2929C7.10525 48.4805 6.99989 48.7348 6.99989 49.0001V52.1001C5.78585 52.3479 4.70707 53.0376 3.97269 54.0356C3.23832 55.0336 2.90067 56.2688 3.02521 57.5016C3.14975 58.7344 3.7276 59.877 4.64674 60.708C5.56587 61.539 6.76081 61.999 7.99989 61.999C9.23897 61.999 10.4339 61.539 11.353 60.708C12.2722 59.877 12.85 58.7344 12.9746 57.5016C13.0991 56.2688 12.7615 55.0336 12.0271 54.0356C11.2927 53.0376 10.2139 52.3479 8.99989 52.1001V50.0001H15.9999C16.2651 50.0001 16.5195 49.8947 16.707 49.7072C16.8945 49.5196 16.9999 49.2653 16.9999 49.0001V46.0001H25.9999C26.2651 46.0001 26.5195 45.8947 26.707 45.7072C26.8945 45.5196 26.9999 45.2653 26.9999 45.0001V37.0001C26.9999 36.7348 26.8945 36.4805 26.707 36.2929C26.5195 36.1054 26.2651 36.0001 25.9999 36.0001H16.9999V32.0001H25.9999C26.2651 32.0001 26.5195 31.8947 26.707 31.7072C26.8945 31.5196 26.9999 31.2653 26.9999 31.0001V28.0001H30.9999V52.1001C29.7858 52.3479 28.7071 53.0376 27.9727 54.0356C27.2383 55.0336 26.9007 56.2688 27.0252 57.5016C27.1497 58.7344 27.7276 59.877 28.6467 60.708C29.5659 61.539 30.7608 61.999 31.9999 61.999C33.239 61.999 34.4339 61.539 35.353 60.708C36.2722 59.877 36.85 58.7344 36.9746 57.5016C37.0991 56.2688 36.7615 55.0336 36.0271 54.0356C35.2927 53.0376 34.2139 52.3479 32.9999 52.1001V28.0001H36.9999V31.0001C36.9999 31.2653 37.1052 31.5196 37.2928 31.7072C37.4803 31.8947 37.7347 32.0001 37.9999 32.0001H46.9999V36.0001H37.9999C37.7347 36.0001 37.4803 36.1054 37.2928 36.2929C37.1052 36.4805 36.9999 36.7348 36.9999 37.0001V45.0001C36.9999 45.2653 37.1052 45.5196 37.2928 45.7072C37.4803 45.8947 37.7347 46.0001 37.9999 46.0001H46.9999V49.0001C46.9999 49.2653 47.1052 49.5196 47.2928 49.7072C47.4803 49.8947 47.7347 50.0001 47.9999 50.0001H54.9999V52.1001C53.7858 52.3479 52.7071 53.0376 51.9727 54.0356C51.2383 55.0336 50.9007 56.2688 51.0252 57.5016C51.1497 58.7344 51.7276 59.877 52.6467 60.708C53.5659 61.539 54.7608 61.999 55.9999 61.999C57.239 61.999 58.4339 61.539 59.353 60.708C60.2722 59.877 60.85 58.7344 60.9746 57.5016C61.0991 56.2688 60.7615 55.0336 60.0271 54.0356C59.2927 53.0376 58.2139 52.3479 56.9999 52.1001ZM10.9999 57.0001C10.9999 57.5934 10.8239 58.1734 10.4943 58.6668C10.1647 59.1601 9.69612 59.5446 9.14794 59.7717C8.59976 59.9988 7.99656 60.0582 7.41462 59.9424C6.83267 59.8267 6.29813 59.5409 5.87857 59.1214C5.45901 58.7018 5.17329 58.1673 5.05753 57.5853C4.94178 57.0034 5.00119 56.4002 5.22825 55.852C5.45531 55.3038 5.83983 54.8353 6.33318 54.5056C6.82653 54.176 7.40654 54.0001 7.99989 54.0001C8.79554 54.0001 9.5586 54.3161 10.1212 54.8787C10.6838 55.4413 10.9999 56.2044 10.9999 57.0001ZM24.9999 44.0001H6.99989V38.0001H24.9999V44.0001ZM34.9999 57.0001C34.9999 57.5934 34.8239 58.1734 34.4943 58.6668C34.1647 59.1601 33.6961 59.5446 33.1479 59.7717C32.5998 59.9988 31.9966 60.0582 31.4146 59.9424C30.8327 59.8267 30.2981 59.5409 29.8786 59.1214C29.459 58.7018 29.1733 58.1673 29.0575 57.5853C28.9418 57.0034 29.0012 56.4002 29.2283 55.852C29.4553 55.3038 29.8398 54.8353 30.3332 54.5056C30.8265 54.176 31.4065 54.0001 31.9999 54.0001C32.7955 54.0001 33.5586 54.3161 34.1212 54.8787C34.6838 55.4413 34.9999 56.2044 34.9999 57.0001ZM9.99989 18.0001C9.99762 16.6971 10.3142 15.4133 10.922 14.2608C11.5298 13.1083 12.4104 12.122 13.487 11.388C14.5635 10.6539 15.8033 10.1944 17.0982 10.0496C18.3931 9.90479 19.7038 10.079 20.9159 10.5571C21.1481 10.6482 21.4059 10.6493 21.6388 10.5601C21.8717 10.4709 22.0629 10.2979 22.1749 10.0751C22.8998 8.6213 23.9385 7.34668 25.216 6.34326C26.4935 5.33984 27.9779 4.63266 29.562 4.2728C31.1461 3.91294 32.7903 3.90939 34.376 4.2624C35.9616 4.6154 37.4491 5.31616 38.7309 6.31405C38.8698 6.42209 39.0348 6.49156 39.2091 6.51544C39.3835 6.53931 39.561 6.51676 39.7239 6.45005C40.4533 6.15031 41.2347 5.99745 42.0233 6.00023C42.8119 6.00302 43.5922 6.16139 44.3195 6.46628C45.0468 6.77117 45.7068 7.21657 46.2616 7.77697C46.8165 8.33738 47.2553 9.00176 47.5529 9.73205C47.6101 9.87205 47.6983 9.99726 47.8109 10.0982C47.9235 10.1992 48.0575 10.2734 48.2029 10.3151C50.0527 10.85 51.6474 12.0343 52.6943 13.6504C53.7413 15.2664 54.1702 17.2059 53.9024 19.1128C53.6346 21.0196 52.688 22.7659 51.2364 24.0311C49.7847 25.2962 47.9255 25.9953 45.9999 26.0001H17.9999C15.8789 25.9977 13.8454 25.154 12.3457 23.6543C10.8459 22.1545 10.0023 20.1211 9.99989 18.0001ZM38.9999 38.0001H56.9999V44.0001H38.9999V38.0001ZM55.9999 60.0001C55.4065 60.0001 54.8265 59.8241 54.3332 59.4945C53.8398 59.1648 53.4553 58.6963 53.2283 58.1481C53.0012 57.5999 52.9418 56.9967 53.0575 56.4148C53.1733 55.8328 53.459 55.2983 53.8786 54.8787C54.2981 54.4592 54.8327 54.1735 55.4146 54.0577C55.9966 53.9419 56.5998 54.0014 57.1479 54.2284C57.6961 54.4555 58.1647 54.84 58.4943 55.3333C58.8239 55.8267 58.9999 56.4067 58.9999 57.0001C58.9999 57.7957 58.6838 58.5588 58.1212 59.1214C57.5586 59.684 56.7955 60.0001 55.9999 60.0001Z" fill="#0477BD"/>
<path d="M53 42H55C55.2652 42 55.5196 41.8946 55.7071 41.7071C55.8946 41.5196 56 41.2652 56 41C56 40.7348 55.8946 40.4804 55.7071 40.2929C55.5196 40.1054 55.2652 40 55 40H53C52.7348 40 52.4804 40.1054 52.2929 40.2929C52.1054 40.4804 52 40.7348 52 41C52 41.2652 52.1054 41.5196 52.2929 41.7071C52.4804 41.8946 52.7348 42 53 42Z" fill="#0477BD"/>
<path d="M50 41C50 40.7348 49.8946 40.4804 49.7071 40.2929C49.5196 40.1054 49.2652 40 49 40H47C46.7348 40 46.4804 40.1054 46.2929 40.2929C46.1054 40.4804 46 40.7348 46 41C46 41.2652 46.1054 41.5196 46.2929 41.7071C46.4804 41.8946 46.7348 42 47 42H49C49.2652 42 49.5196 41.8946 49.7071 41.7071C49.8946 41.5196 50 41.2652 50 41Z" fill="#0477BD"/>
<path d="M43 40H41C40.7348 40 40.4804 40.1054 40.2929 40.2929C40.1054 40.4804 40 40.7348 40 41C40 41.2652 40.1054 41.5196 40.2929 41.7071C40.4804 41.8946 40.7348 42 41 42H43C43.2652 42 43.5196 41.8946 43.7071 41.7071C43.8946 41.5196 44 41.2652 44 41C44 40.7348 43.8946 40.4804 43.7071 40.2929C43.5196 40.1054 43.2652 40 43 40Z" fill="#0477BD"/>
<path d="M24 56H16C15.7348 56 15.4804 56.1054 15.2929 56.2929C15.1054 56.4804 15 56.7348 15 57C15 57.2652 15.1054 57.5196 15.2929 57.7071C15.4804 57.8946 15.7348 58 16 58H24C24.2652 58 24.5196 57.8946 24.7071 57.7071C24.8946 57.5196 25 57.2652 25 57C25 56.7348 24.8946 56.4804 24.7071 56.2929C24.5196 56.1054 24.2652 56 24 56Z" fill="#0477BD"/>
<path d="M48 56H40C39.7348 56 39.4804 56.1054 39.2929 56.2929C39.1054 56.4804 39 56.7348 39 57C39 57.2652 39.1054 57.5196 39.2929 57.7071C39.4804 57.8946 39.7348 58 40 58H48C48.2652 58 48.5196 57.8946 48.7071 57.7071C48.8946 57.5196 49 57.2652 49 57C49 56.7348 48.8946 56.4804 48.7071 56.2929C48.5196 56.1054 48.2652 56 48 56Z" fill="#0477BD"/>
</svg>
