<svg width="64" height="64" viewBox="0 0 64 64" fill="none" xmlns="http://www.w3.org/2000/svg">
<path d="M59.0001 28H38.6551C40.1634 24.2155 40.4105 20.0454 39.3596 16.1093C38.3087 12.1731 36.016 8.68108 32.8221 6.152C32.8051 6.142 32.7921 6.125 32.7741 6.116C29.4282 3.45141 25.2774 2.00055 21.0001 2.00055C16.7228 2.00055 12.572 3.45141 9.22607 6.116C9.20807 6.125 9.19507 6.142 9.17807 6.152C6.09168 8.60253 3.84453 11.9529 2.7484 15.7383C1.65227 19.5238 1.76151 23.5565 3.06097 27.277C4.36042 30.9975 6.78566 34.2214 10.0002 36.5012C13.2147 38.7811 17.0591 40.0039 21.0001 40C22.0051 40 23.0084 39.9181 24.0001 39.755V51C24.0001 51.7957 24.3161 52.5587 24.8787 53.1213C25.4414 53.6839 26.2044 54 27.0001 54V56C26.2044 56 25.4414 56.3161 24.8787 56.8787C24.3161 57.4413 24.0001 58.2043 24.0001 59C24.0001 59.7957 24.3161 60.5587 24.8787 61.1213C25.4414 61.6839 26.2044 62 27.0001 62H59.0001C59.7957 62 60.5588 61.6839 61.1214 61.1213C61.684 60.5587 62.0001 59.7957 62.0001 59C62.0001 58.2043 61.684 57.4413 61.1214 56.8787C60.5588 56.3161 59.7957 56 59.0001 56V54C59.7957 54 60.5588 53.6839 61.1214 53.1213C61.684 52.5587 62.0001 51.7957 62.0001 51V31C62.0001 30.2044 61.684 29.4413 61.1214 28.8787C60.5588 28.3161 59.7957 28 59.0001 28ZM29.3701 28C29.7307 26.0192 29.933 24.0129 29.9751 22H37.9431C37.8263 24.0746 37.3241 26.1093 36.4621 28H29.3701ZM16.0081 32.761C18.5961 31.9693 21.335 31.8024 24.0001 32.274V36.229C23.6576 36.7233 23.2121 37.1376 22.6942 37.4433C22.1763 37.749 21.5983 37.9389 21.0001 38C19.2101 38 17.3591 36.071 16.0081 32.761ZM16.3621 37.341C14.583 36.8383 12.8984 36.0475 11.3751 35C12.2516 34.3967 13.1835 33.8781 14.1581 33.451C14.703 34.8463 15.4453 36.1563 16.3621 37.341ZM24.1001 30.259C21.1681 29.7826 18.1654 29.9955 15.3301 30.881C14.4997 27.9923 14.0598 25.0054 14.0221 22H27.9751C27.9319 24.0145 27.7178 26.0217 27.3351 28H27.0001C26.3346 28.0016 25.6885 28.2243 25.1635 28.6333C24.6386 29.0422 24.2644 29.6141 24.1001 30.259ZM21.0001 4C22.7891 4 24.6381 5.926 25.9891 9.232C24.3737 9.73566 22.6921 9.99454 21.0001 10C19.308 9.99454 17.6264 9.73566 16.0111 9.232C17.3621 5.926 19.2111 4 21.0001 4ZM14.1581 8.552C13.1835 8.123 12.2514 7.60338 11.3741 7C12.8973 5.9511 14.5824 5.15925 16.3621 4.656C15.4448 5.84257 14.7026 7.15461 14.1581 8.552ZM25.6381 4.659C27.4176 5.16133 29.1026 5.95216 30.6261 7C29.7486 7.60234 28.8165 8.12095 27.8421 8.549C27.297 7.1537 26.5548 5.84372 25.6381 4.659ZM21.0001 12C22.922 11.9935 24.8318 11.6951 26.6641 11.115C27.4971 14.0046 27.9391 16.9929 27.9781 20H14.0221C14.0611 16.9929 14.503 14.0046 15.3361 11.115C17.1684 11.6951 19.0781 11.9935 21.0001 12ZM37.9491 20H29.9771C29.9323 16.7592 29.4417 13.54 28.5191 10.433C29.8399 9.86202 31.0913 9.14238 32.2491 8.288C33.9249 9.76756 35.2914 11.5642 36.2697 13.5743C37.248 15.5844 37.8187 17.7683 37.9491 20ZM9.75107 8.288C10.9089 9.14238 12.1603 9.86202 13.4811 10.433C12.5584 13.54 12.0678 16.7592 12.0231 20H4.05107C4.18141 17.7683 4.75218 15.5844 5.73046 13.5743C6.70875 11.5642 8.0752 9.76756 9.75107 8.288ZM4.05107 22H12.0231C12.068 25.2394 12.5583 28.4572 13.4801 31.563C12.1567 32.1305 10.9025 32.8475 9.74207 33.7C8.06924 32.2211 6.70527 30.426 5.7286 28.4181C4.75193 26.4102 4.18182 24.229 4.05107 22ZM60.0001 59C60.0001 59.2652 59.8947 59.5196 59.7072 59.7071C59.5196 59.8946 59.2653 60 59.0001 60H27.0001C26.7348 60 26.4805 59.8946 26.293 59.7071C26.1054 59.5196 26.0001 59.2652 26.0001 59C26.0001 58.7348 26.1054 58.4804 26.293 58.2929C26.4805 58.1054 26.7348 58 27.0001 58H59.0001C59.2653 58 59.5196 58.1054 59.7072 58.2929C59.8947 58.4804 60.0001 58.7348 60.0001 59ZM57.0001 56H29.0001V54H57.0001V56ZM60.0001 51C60.0001 51.2652 59.8947 51.5196 59.7072 51.7071C59.5196 51.8946 59.2653 52 59.0001 52H27.0001C26.7348 52 26.4805 51.8946 26.293 51.7071C26.1054 51.5196 26.0001 51.2652 26.0001 51V31C26.0001 30.7348 26.1054 30.4804 26.293 30.2929C26.4805 30.1054 26.7348 30 27.0001 30H59.0001C59.2653 30 59.5196 30.1054 59.7072 30.2929C59.8947 30.4804 60.0001 30.7348 60.0001 31V51Z" fill="#0477BD"/>
<path d="M57 32H29C28.7348 32 28.4805 32.1054 28.2929 32.2929C28.1054 32.4804 28 32.7348 28 33V49C28 49.2652 28.1054 49.5196 28.2929 49.7071C28.4805 49.8946 28.7348 50 29 50H57C57.2653 50 57.5196 49.8946 57.7072 49.7071C57.8947 49.5196 58 49.2652 58 49V33C58 32.7348 57.8947 32.4804 57.7072 32.2929C57.5196 32.1054 57.2653 32 57 32ZM56 48H30V34H56V48Z" fill="#0477BD"/>
<path d="M19 52H3.00005C2.73483 52 2.48048 52.1054 2.29294 52.2929C2.10541 52.4804 2.00005 52.7348 2.00005 53V61C2.00005 61.2652 2.10541 61.5196 2.29294 61.7071C2.48048 61.8946 2.73483 62 3.00005 62H19C19.2653 62 19.5196 61.8946 19.7072 61.7071C19.8947 61.5196 20 61.2652 20 61V53C20 52.7348 19.8947 52.4804 19.7072 52.2929C19.5196 52.1054 19.2653 52 19 52ZM18 60H4.00005V54H18V60Z" fill="#0477BD"/>
<path d="M7.00005 58H9.00005C9.26527 58 9.51962 57.8946 9.70716 57.7071C9.89469 57.5196 10 57.2652 10 57C10 56.7348 9.89469 56.4804 9.70716 56.2929C9.51962 56.1054 9.26527 56 9.00005 56H7.00005C6.73483 56 6.48048 56.1054 6.29294 56.2929C6.10541 56.4804 6.00005 56.7348 6.00005 57C6.00005 57.2652 6.10541 57.5196 6.29294 57.7071C6.48048 57.8946 6.73483 58 7.00005 58Z" fill="#0477BD"/>
<path d="M13 58H15C15.2653 58 15.5196 57.8946 15.7072 57.7071C15.8947 57.5196 16 57.2652 16 57C16 56.7348 15.8947 56.4804 15.7072 56.2929C15.5196 56.1054 15.2653 56 15 56H13C12.7348 56 12.4805 56.1054 12.2929 56.2929C12.1054 56.4804 12 56.7348 12 57C12 57.2652 12.1054 57.5196 12.2929 57.7071C12.4805 57.8946 12.7348 58 13 58Z" fill="#0477BD"/>
<path d="M61 2H45C44.7348 2 44.4805 2.10536 44.2929 2.29289C44.1054 2.48043 44 2.73478 44 3V11C44 11.2652 44.1054 11.5196 44.2929 11.7071C44.4805 11.8946 44.7348 12 45 12H61C61.2653 12 61.5196 11.8946 61.7072 11.7071C61.8947 11.5196 62 11.2652 62 11V3C62 2.73478 61.8947 2.48043 61.7072 2.29289C61.5196 2.10536 61.2653 2 61 2ZM60 10H46V4H60V10Z" fill="#0477BD"/>
<path d="M49 8H51C51.2653 8 51.5196 7.89464 51.7072 7.70711C51.8947 7.51957 52 7.26522 52 7C52 6.73478 51.8947 6.48043 51.7072 6.29289C51.5196 6.10536 51.2653 6 51 6H49C48.7348 6 48.4805 6.10536 48.2929 6.29289C48.1054 6.48043 48 6.73478 48 7C48 7.26522 48.1054 7.51957 48.2929 7.70711C48.4805 7.89464 48.7348 8 49 8Z" fill="#0477BD"/>
<path d="M55 8H57C57.2653 8 57.5196 7.89464 57.7072 7.70711C57.8947 7.51957 58 7.26522 58 7C58 6.73478 57.8947 6.48043 57.7072 6.29289C57.5196 6.10536 57.2653 6 57 6H55C54.7348 6 54.4805 6.10536 54.2929 6.29289C54.1054 6.48043 54 6.73478 54 7C54 7.26522 54.1054 7.51957 54.2929 7.70711C54.4805 7.89464 54.7348 8 55 8Z" fill="#0477BD"/>
<path d="M45 16H47C47.2653 16 47.5196 15.8946 47.7072 15.7071C47.8947 15.5196 48 15.2652 48 15C48 14.7348 47.8947 14.4804 47.7072 14.2929C47.5196 14.1054 47.2653 14 47 14H45C44.7348 14 44.4805 14.1054 44.2929 14.2929C44.1054 14.4804 44 14.7348 44 15C44 15.2652 44.1054 15.5196 44.2929 15.7071C44.4805 15.8946 44.7348 16 45 16Z" fill="#0477BD"/>
<path d="M61 14H51C50.7348 14 50.4805 14.1054 50.2929 14.2929C50.1054 14.4804 50 14.7348 50 15C50 15.2652 50.1054 15.5196 50.2929 15.7071C50.4805 15.8946 50.7348 16 51 16H61C61.2653 16 61.5196 15.8946 61.7072 15.7071C61.8947 15.5196 62 15.2652 62 15C62 14.7348 61.8947 14.4804 61.7072 14.2929C61.5196 14.1054 61.2653 14 61 14Z" fill="#0477BD"/>
<path d="M45 20H47C47.2653 20 47.5196 19.8946 47.7072 19.7071C47.8947 19.5196 48 19.2652 48 19C48 18.7348 47.8947 18.4804 47.7072 18.2929C47.5196 18.1054 47.2653 18 47 18H45C44.7348 18 44.4805 18.1054 44.2929 18.2929C44.1054 18.4804 44 18.7348 44 19C44 19.2652 44.1054 19.5196 44.2929 19.7071C44.4805 19.8946 44.7348 20 45 20Z" fill="#0477BD"/>
<path d="M61 18H51C50.7348 18 50.4805 18.1054 50.2929 18.2929C50.1054 18.4804 50 18.7348 50 19C50 19.2652 50.1054 19.5196 50.2929 19.7071C50.4805 19.8946 50.7348 20 51 20H61C61.2653 20 61.5196 19.8946 61.7072 19.7071C61.8947 19.5196 62 19.2652 62 19C62 18.7348 61.8947 18.4804 61.7072 18.2929C61.5196 18.1054 61.2653 18 61 18Z" fill="#0477BD"/>
<path d="M4.00005 46H6.00005C6.26527 46 6.51962 45.8946 6.70716 45.7071C6.89469 45.5196 7.00005 45.2652 7.00005 45C7.00005 44.7348 6.89469 44.4804 6.70716 44.2929C6.51962 44.1054 6.26527 44 6.00005 44H4.00005C3.73483 44 3.48048 44.1054 3.29294 44.2929C3.10541 44.4804 3.00005 44.7348 3.00005 45C3.00005 45.2652 3.10541 45.5196 3.29294 45.7071C3.48048 45.8946 3.73483 46 4.00005 46Z" fill="#0477BD"/>
<path d="M20 44H10C9.73483 44 9.48048 44.1054 9.29294 44.2929C9.1054 44.4804 9.00005 44.7348 9.00005 45C9.00005 45.2652 9.1054 45.5196 9.29294 45.7071C9.48048 45.8946 9.73483 46 10 46H20C20.2653 46 20.5196 45.8946 20.7072 45.7071C20.8947 45.5196 21 45.2652 21 45C21 44.7348 20.8947 44.4804 20.7072 44.2929C20.5196 44.1054 20.2653 44 20 44Z" fill="#0477BD"/>
<path d="M4.00005 50H6.00005C6.26527 50 6.51962 49.8946 6.70716 49.7071C6.89469 49.5196 7.00005 49.2652 7.00005 49C7.00005 48.7348 6.89469 48.4804 6.70716 48.2929C6.51962 48.1054 6.26527 48 6.00005 48H4.00005C3.73483 48 3.48048 48.1054 3.29294 48.2929C3.10541 48.4804 3.00005 48.7348 3.00005 49C3.00005 49.2652 3.10541 49.5196 3.29294 49.7071C3.48048 49.8946 3.73483 50 4.00005 50Z" fill="#0477BD"/>
<path d="M20 48H10C9.73483 48 9.48048 48.1054 9.29294 48.2929C9.1054 48.4804 9.00005 48.7348 9.00005 49C9.00005 49.2652 9.1054 49.5196 9.29294 49.7071C9.48048 49.8946 9.73483 50 10 50H20C20.2653 50 20.5196 49.8946 20.7072 49.7071C20.8947 49.5196 21 49.2652 21 49C21 48.7348 20.8947 48.4804 20.7072 48.2929C20.5196 48.1054 20.2653 48 20 48Z" fill="#0477BD"/>
</svg>
