<svg width="150" height="65" viewBox="0 0 150 65" fill="none" xmlns="http://www.w3.org/2000/svg">
<path d="M111.866 0H112.685C112.709 8.92366 112.69 17.8486 112.695 26.7723C112.686 39.4209 112.707 52.0708 112.699 64.7207C110.991 63.7399 109.22 62.8724 107.477 61.9585C106.282 61.3613 105.132 60.6701 103.93 60.0935C101.104 63.0744 97.039 64.7078 92.9743 64.9099C91.6901 65.121 90.4046 64.8932 89.1254 64.7709C86.39 64.4246 83.7149 63.485 81.4123 61.9559C78.0052 59.6996 75.5394 56.1651 74.3515 52.2703C73.3934 49.2687 73.1815 46.0715 73.4474 42.9438C73.7248 40.2253 74.4606 37.5378 75.7513 35.1232C77.5159 31.7547 80.4272 28.9939 83.923 27.4944C88.9444 25.2882 94.9302 25.3706 99.8592 27.7981C99.8502 22.8234 99.8605 17.8473 99.854 12.8713C99.8695 9.09485 101.639 5.37119 104.563 2.98614C106.487 1.41584 108.866 0.393861 111.336 0.136436C111.515 0.104257 111.691 0.0579208 111.866 0ZM90.7282 37.1774C87.2235 37.8943 84.4033 41.0967 84.1336 44.6698C83.6713 48.732 86.6584 52.8405 90.6563 53.6475C92.53 54.0954 94.5501 53.8341 96.2594 52.9473C98.1537 52.0064 99.655 50.3177 100.379 48.3278C101.02 46.5606 101.043 44.5797 100.461 42.7932C99.8271 40.7698 98.3566 39.0412 96.506 38.0282C94.7582 37.0809 92.6725 36.7527 90.7282 37.1774Z" fill="white"/>
<path d="M60.0809 25.5456C64.0145 24.933 68.223 25.9794 71.2731 28.5833C71.2012 28.9038 71.006 29.1741 70.8673 29.4662C69.3249 32.5103 67.8493 35.5878 66.3737 38.6628C63.1425 36.512 58.5629 36.7655 55.5449 39.1892C54.059 40.336 52.9379 41.9501 52.3715 43.7405C51.7834 45.4897 51.5625 47.338 51.4507 49.1709C51.3737 50.9111 51.5316 52.6757 51.1476 54.3889C50.5415 57.2373 48.9709 59.8837 46.717 61.7281C44.4619 63.6189 41.5312 64.6473 38.6018 64.6949C38.5839 51.7747 38.6262 38.8558 38.5826 25.9356C42.8617 25.9279 47.1408 25.9369 51.4199 25.9318C51.4148 27.4544 51.4045 28.9797 51.4045 30.5024C51.4276 30.5191 51.4738 30.5526 51.497 30.5693C52.3073 29.7636 53.1151 28.9527 53.9794 28.2048C55.6836 26.7208 57.8733 25.8983 60.0809 25.5456Z" fill="white"/>
<path d="M16.3575 27.4712C18.6177 25.9099 21.4289 25.314 24.1426 25.3964C27.2042 25.4684 30.2273 26.5715 32.6199 28.488C32.5801 28.6129 32.5338 28.7365 32.4837 28.8587C30.9478 32.1834 29.3296 35.4681 27.6498 38.7207C25.6117 37.0732 22.744 36.9458 20.2847 37.516C17.7444 38.1788 15.5278 39.9795 14.336 42.3234C13.2547 44.5231 12.9311 47.0085 12.8733 49.4361C12.6986 51.2767 12.9003 53.1636 12.4187 54.9694C11.0497 60.4835 5.69435 64.7555 0 64.6963V25.9292C4.26755 25.9421 8.5351 25.9228 12.8039 25.9395C12.7834 27.4957 12.7898 29.0518 12.7924 30.6092C12.9914 30.5101 13.1468 30.3505 13.2945 30.1883C14.2205 29.1831 15.2183 28.2345 16.3575 27.4712Z" fill="white"/>
<path d="M124.905 38.0359C127.076 34.858 130.634 32.666 134.457 32.2117C138.298 31.6981 142.325 32.9338 145.221 35.5145C143.111 37.5945 141.014 39.6899 138.934 41.8008C138.166 41.331 137.283 41.0723 136.384 41.0504C135.298 41.0697 134.209 41.4211 133.368 42.1213C132.089 43.1381 131.399 44.8539 131.643 46.4744C131.865 48.1978 133.113 49.7308 134.75 50.3036C135.271 50.5082 135.832 50.5558 136.387 50.5919C137.287 50.5661 138.177 50.3177 138.941 49.8325C141.004 51.9228 143.086 53.9976 145.171 56.0648C141.547 59.3456 136.088 60.3226 131.521 58.6377C127.72 57.2798 124.603 54.1456 123.28 50.3229C121.842 46.2787 122.44 41.5588 124.905 38.0359Z" fill="white"/>
<path d="M137.495 45.7072C140.509 42.7481 143.473 39.735 146.468 36.754C148.19 38.7593 149.368 41.2486 149.711 43.8808C150.257 47.7319 149.069 51.8211 146.452 54.7081C143.482 51.6924 140.449 48.7371 137.495 45.7072Z" fill="white"/>
</svg>
