<svg width="64" height="64" viewBox="0 0 64 64" fill="none" xmlns="http://www.w3.org/2000/svg">
<path d="M17.952 44.507C19.1953 43.6884 20.2159 42.5741 20.9224 41.2639C21.6289 39.9537 21.9992 38.4886 22 37V34H23C23.2652 34 23.5196 33.8947 23.7071 33.7071C23.8946 33.5196 24 33.2653 24 33C23.9995 30.8248 23.3541 28.6985 22.1454 26.89C20.9367 25.0815 19.2189 23.6719 17.2092 22.8396C15.1995 22.0072 12.9881 21.7894 10.8547 22.2136C8.72117 22.6379 6.76137 23.6851 5.223 25.223C4.19833 26.2419 3.38588 27.4538 2.83265 28.7888C2.27943 30.1237 1.99642 31.555 2 33C2 33.2653 2.10536 33.5196 2.2929 33.7071C2.48043 33.8947 2.73479 34 3 34H4V37C4.00082 38.4886 4.37108 39.9537 5.07759 41.2639C5.78409 42.5741 6.80474 43.6884 8.048 44.507C6.28381 45.121 4.75409 46.2681 3.67054 47.7897C2.587 49.3113 2.00322 51.1321 2 53V61C2 61.2652 2.10536 61.5196 2.2929 61.7071C2.48043 61.8947 2.73479 62 3 62H23C23.2652 62 23.5196 61.8947 23.7071 61.7071C23.8946 61.5196 24 61.2652 24 61V53C23.9968 51.1321 23.413 49.3113 22.3295 47.7897C21.2459 46.2681 19.7162 45.121 17.952 44.507ZM6.637 26.637C7.83534 25.4387 9.34764 24.6031 10.9999 24.2264C12.6522 23.8496 14.3772 23.947 15.9766 24.5073C17.5759 25.0676 18.9846 26.0681 20.0405 27.3936C21.0963 28.7192 21.7565 30.3159 21.945 32H21.121L13.242 30.03C13.0833 29.9891 12.9167 29.9891 12.758 30.03L4.879 32H4.055C4.27743 29.9698 5.18869 28.0771 6.637 26.637ZM6 37V33.781L13 32.031L20 33.781V37C20 38.8566 19.2625 40.637 17.9497 41.9498C16.637 43.2625 14.8565 44 13 44C11.1435 44 9.36301 43.2625 8.05026 41.9498C6.7375 40.637 6 38.8566 6 37ZM22 60H4V53C4.00238 51.1442 4.74065 49.3652 6.05289 48.0529C7.36512 46.7407 9.14422 46.0024 11 46H12V55C12 55.2652 12.1054 55.5196 12.2929 55.7071C12.4804 55.8947 12.7348 56 13 56C13.2652 56 13.5196 55.8947 13.7071 55.7071C13.8946 55.5196 14 55.2652 14 55V46H15C16.8558 46.0024 18.6349 46.7407 19.9471 48.0529C21.2594 49.3652 21.9976 51.1442 22 53V60Z" fill="#0477BD"/>
<path d="M60 37V34H61C61.2652 34 61.5196 33.8946 61.7071 33.7071C61.8946 33.5196 62 33.2652 62 33C62 30.0826 60.8411 27.2847 58.7782 25.2218C56.7153 23.1589 53.9174 22 51 22C48.0826 22 45.2847 23.1589 43.2218 25.2218C41.1589 27.2847 40 30.0826 40 33C40 33.2652 40.1054 33.5196 40.2929 33.7071C40.4804 33.8946 40.7348 34 41 34H42V37C42.0008 38.4886 42.3711 39.9536 43.0776 41.2638C43.7841 42.574 44.8047 43.6884 46.048 44.507C44.2838 45.1209 42.7541 46.2681 41.6705 47.7897C40.587 49.3113 40.0032 51.132 40 53V61C40 61.2652 40.1054 61.5196 40.2929 61.7071C40.4804 61.8946 40.7348 62 41 62H61C61.2652 62 61.5196 61.8946 61.7071 61.7071C61.8946 61.5196 62 61.2652 62 61V53C61.9968 51.132 61.413 49.3113 60.3295 47.7897C59.2459 46.2681 57.7162 45.1209 55.952 44.507C57.1953 43.6884 58.2159 42.574 58.9224 41.2638C59.6289 39.9536 59.9992 38.4886 60 37ZM44.637 26.637C45.8353 25.4387 47.3476 24.6031 48.9999 24.2263C50.6522 23.8496 52.3772 23.9469 53.9766 24.5072C55.5759 25.0676 56.9846 26.0681 58.0405 27.3936C59.0963 28.7191 59.7565 30.3158 59.945 32H59.121L51.242 30.03C51.0833 29.989 50.9167 29.989 50.758 30.03L42.879 32H42.055C42.2774 29.9698 43.1887 28.077 44.637 26.637ZM44 37V33.781L51 32.031L58 33.781V37C58 38.8565 57.2625 40.637 55.9497 41.9497C54.637 43.2625 52.8565 44 51 44C49.1435 44 47.363 43.2625 46.0503 41.9497C44.7375 40.637 44 38.8565 44 37ZM60 53V60H42V53C42.0024 51.1442 42.7406 49.3651 44.0529 48.0529C45.3651 46.7406 47.1442 46.0024 49 46H50V55C50 55.2652 50.1054 55.5196 50.2929 55.7071C50.4804 55.8946 50.7348 56 51 56C51.2652 56 51.5196 55.8946 51.7071 55.7071C51.8946 55.5196 52 55.2652 52 55V46H53C54.8558 46.0024 56.6349 46.7406 57.9471 48.0529C59.2594 49.3651 59.9976 51.1442 60 53Z" fill="#0477BD"/>
<path d="M23.286 24.6189C23.297 24.6319 23.3 24.6499 23.312 24.6629C23.3547 24.7021 23.4009 24.7372 23.45 24.7679C25.8149 26.8539 28.8607 28.0033 32.0141 27.9998C35.1675 27.9963 38.2108 26.8401 40.571 24.7489C40.6125 24.7238 40.6516 24.695 40.688 24.6629C40.7 24.6499 40.703 24.6319 40.714 24.6189C42.0629 23.4058 43.1416 21.9224 43.88 20.2653C44.6184 18.6081 44.9999 16.8142 44.9999 14.9999C44.9999 13.1857 44.6184 11.3918 43.88 9.73462C43.1416 8.07746 42.0629 6.59412 40.714 5.38094C40.703 5.36794 40.7 5.34994 40.688 5.33694C40.6451 5.29953 40.5989 5.26606 40.55 5.23694C38.1888 3.15416 35.1485 2.00488 32 2.00488C28.8515 2.00488 25.8112 3.15416 23.45 5.23694C23.4014 5.26562 23.3559 5.29912 23.314 5.33694C23.302 5.34994 23.299 5.36794 23.288 5.38094C21.9391 6.59412 20.8604 8.07746 20.122 9.73462C19.3837 11.3918 19.0021 13.1857 19.0021 14.9999C19.0021 16.8142 19.3837 18.6081 20.122 20.2653C20.8604 21.9224 21.9391 23.4058 23.288 24.6189H23.286ZM26.022 15.9999C26.0669 17.7338 26.284 19.459 26.67 21.1499C25.7663 21.5551 24.9123 22.0631 24.125 22.6639C22.3649 20.862 21.2793 18.5086 21.051 15.9999H26.022ZM32 3.99994C33.017 3.99994 34.1 5.37294 34.878 7.61594C33.9398 7.8701 32.9721 7.99921 32 7.99994C31.028 7.99921 30.0603 7.8701 29.122 7.61594C29.9 5.37294 30.983 3.99994 32 3.99994ZM27.239 6.91894C26.6976 6.65774 26.1788 6.35202 25.688 6.00494C26.4907 5.44225 27.3652 4.98957 28.288 4.65894C27.8638 5.37539 27.5124 6.13249 27.239 6.91894ZM35.714 4.65894C36.6369 4.98957 37.5113 5.44225 38.314 6.00494C37.8232 6.35202 37.3044 6.65774 36.763 6.91894C36.4896 6.13249 36.1382 5.37539 35.714 4.65894ZM32 9.99994C33.1566 9.99906 34.308 9.84471 35.424 9.54094C35.7451 11.0072 35.9309 12.4998 35.979 13.9999H28.021C28.0691 12.4998 28.2549 11.0072 28.576 9.54094C29.692 9.84471 30.8434 9.99906 32 9.99994ZM35.979 15.9999C35.9309 17.5001 35.7451 18.9927 35.424 20.4589C33.1824 19.8469 30.8177 19.8469 28.576 20.4589C28.2549 18.9927 28.0691 17.5001 28.021 15.9999H35.979ZM32 25.9999C30.983 25.9999 29.9 24.6269 29.122 22.3839C31.0065 21.8719 32.9935 21.8719 34.878 22.3839C34.1 24.6269 33.017 25.9999 32 25.9999ZM36.761 23.0809C37.3026 23.3437 37.8214 23.6511 38.312 23.9999C37.5093 24.5626 36.6349 25.0153 35.712 25.3459C36.1365 24.6279 36.4879 23.8691 36.761 23.0809ZM28.286 25.3409C27.3641 25.0117 26.4904 24.5607 25.688 23.9999C26.1788 23.6529 26.6976 23.3471 27.239 23.0859C27.5121 23.8706 27.8628 24.626 28.286 25.3409ZM39.875 22.6639C39.0877 22.0631 38.2337 21.5551 37.33 21.1499C37.716 19.459 37.9331 17.7338 37.978 15.9999H42.949C42.7207 18.5086 41.6352 20.862 39.875 22.6639ZM42.949 13.9999H37.978C37.9331 12.2661 37.716 10.5409 37.33 8.84994C38.2337 8.44476 39.0877 7.93674 39.875 7.33594C41.6352 9.13793 42.7207 11.4913 42.949 13.9999ZM24.125 7.33594C24.9123 7.93674 25.7663 8.44476 26.67 8.84994C26.284 10.5409 26.0669 12.2661 26.022 13.9999H21.051C21.2793 11.4913 22.3649 9.13793 24.125 7.33594Z" fill="#0477BD"/>
<path d="M8.00003 8H10C10.2652 8 10.5196 7.89464 10.7071 7.70711C10.8947 7.51957 11 7.26522 11 7C11 6.73478 10.8947 6.48043 10.7071 6.29289C10.5196 6.10536 10.2652 6 10 6H8.00003C7.73481 6 7.48046 6.10536 7.29292 6.29289C7.10539 6.48043 7.00003 6.73478 7.00003 7C7.00003 7.26522 7.10539 7.51957 7.29292 7.70711C7.48046 7.89464 7.73481 8 8.00003 8Z" fill="#0477BD"/>
<path d="M10 14H8.00003C7.73481 14 7.48046 14.1054 7.29292 14.2929C7.10539 14.4804 7.00003 14.7348 7.00003 15C7.00003 15.2652 7.10539 15.5196 7.29292 15.7071C7.48046 15.8946 7.73481 16 8.00003 16H10C10.2652 16 10.5196 15.8946 10.7071 15.7071C10.8947 15.5196 11 15.2652 11 15C11 14.7348 10.8947 14.4804 10.7071 14.2929C10.5196 14.1054 10.2652 14 10 14Z" fill="#0477BD"/>
<path d="M30 39V31C30 30.7348 29.8946 30.4804 29.7071 30.2929C29.5196 30.1054 29.2652 30 29 30C28.7348 30 28.4804 30.1054 28.2929 30.2929C28.1054 30.4804 28 30.7348 28 31V38H25C24.7348 38 24.4804 38.1054 24.2929 38.2929C24.1054 38.4804 24 38.7348 24 39C24 39.2652 24.1054 39.5196 24.2929 39.7071C24.4804 39.8946 24.7348 40 25 40H29C29.2652 40 29.5196 39.8946 29.7071 39.7071C29.8946 39.5196 30 39.2652 30 39Z" fill="#0477BD"/>
<path d="M39 38H36V31C36 30.7348 35.8946 30.4804 35.7071 30.2929C35.5196 30.1054 35.2652 30 35 30C34.7348 30 34.4804 30.1054 34.2929 30.2929C34.1054 30.4804 34 30.7348 34 31V39C34 39.2652 34.1054 39.5196 34.2929 39.7071C34.4804 39.8946 34.7348 40 35 40H39C39.2652 40 39.5196 39.8946 39.7071 39.7071C39.8946 39.5196 40 39.2652 40 39C40 38.7348 39.8946 38.4804 39.7071 38.2929C39.5196 38.1054 39.2652 38 39 38Z" fill="#0477BD"/>
<path d="M37.706 47.292L34.879 44.465C34.7868 44.3694 34.6764 44.2933 34.5544 44.2409C34.4324 44.1884 34.3012 44.1609 34.1684 44.1597C34.0356 44.1586 33.904 44.1839 33.7811 44.2341C33.6582 44.2844 33.5465 44.3587 33.4526 44.4526C33.3587 44.5465 33.2845 44.6581 33.2342 44.781C33.1839 44.9039 33.1586 45.0356 33.1598 45.1684C33.1609 45.3011 33.1885 45.4324 33.2409 45.5544C33.2933 45.6764 33.3695 45.7867 33.465 45.879L34.586 47H27C26.7348 47 26.4804 47.1053 26.2929 47.2928C26.1054 47.4804 26 47.7347 26 48C26 48.2652 26.1054 48.5195 26.2929 48.7071C26.4804 48.8946 26.7348 49 27 49H34.586L33.465 50.121C33.3695 50.2132 33.2933 50.3235 33.2409 50.4455C33.1885 50.5676 33.1609 50.6988 33.1598 50.8316C33.1586 50.9643 33.1839 51.096 33.2342 51.2189C33.2845 51.3418 33.3587 51.4535 33.4526 51.5473C33.5465 51.6412 33.6582 51.7155 33.7811 51.7658C33.904 51.8161 34.0356 51.8414 34.1684 51.8402C34.3012 51.839 34.4324 51.8115 34.5544 51.7591C34.6764 51.7066 34.7868 51.6305 34.879 51.535L37.706 48.708C37.7993 48.6148 37.8731 48.504 37.923 48.382C38.0241 48.1373 38.0241 47.8626 37.923 47.618C37.8731 47.4959 37.7993 47.3851 37.706 47.292Z" fill="#0477BD"/>
<path d="M36.9999 55H29.414L30.535 53.879C30.6305 53.7867 30.7067 53.6764 30.7591 53.5544C30.8115 53.4324 30.8391 53.3011 30.8402 53.1684C30.8414 53.0356 30.8161 52.9039 30.7658 52.781C30.7155 52.6581 30.6412 52.5465 30.5474 52.4526C30.4535 52.3587 30.3418 52.2844 30.2189 52.2341C30.096 52.1839 29.9643 52.1586 29.8316 52.1597C29.6988 52.1609 29.5676 52.1884 29.4456 52.2409C29.3236 52.2933 29.2132 52.3694 29.121 52.465L26.294 55.292C26.2006 55.3851 26.1269 55.4959 26.077 55.618C25.9758 55.8626 25.9758 56.1373 26.077 56.382C26.1269 56.504 26.2006 56.6148 26.294 56.708L29.121 59.535C29.2132 59.6305 29.3236 59.7066 29.4456 59.7591C29.5676 59.8115 29.6988 59.839 29.8316 59.8402C29.9643 59.8414 30.096 59.8161 30.2189 59.7658C30.3418 59.7155 30.4535 59.6412 30.5474 59.5473C30.6412 59.4535 30.7155 59.3418 30.7658 59.2189C30.8161 59.096 30.8414 58.9643 30.8402 58.8316C30.8391 58.6988 30.8115 58.5676 30.7591 58.4455C30.7067 58.3235 30.6305 58.2132 30.535 58.121L29.414 57H36.9999C37.2652 57 37.5195 56.8946 37.7071 56.7071C37.8946 56.5195 37.9999 56.2652 37.9999 56C37.9999 55.7347 37.8946 55.4804 37.7071 55.2928C37.5195 55.1053 37.2652 55 36.9999 55Z" fill="#0477BD"/>
<path d="M3.00024 20H15.0002C15.2655 20 15.5198 19.8946 15.7074 19.7071C15.8949 19.5196 16.0002 19.2652 16.0002 19V3C16.0002 2.73478 15.8949 2.48043 15.7074 2.29289C15.5198 2.10536 15.2655 2 15.0002 2H3.00024C2.73503 2 2.48067 2.10536 2.29314 2.29289C2.1056 2.48043 2.00024 2.73478 2.00024 3V19C2.00024 19.2652 2.1056 19.5196 2.29314 19.7071C2.48067 19.8946 2.73503 20 3.00024 20ZM4.00024 18V12H14.0002V18H4.00024ZM14.0002 4V10H4.00024V4H14.0002Z" fill="#0477BD"/>
<path d="M54 8H56C56.2652 8 56.5196 7.89464 56.7071 7.70711C56.8946 7.51957 57 7.26522 57 7C57 6.73478 56.8946 6.48043 56.7071 6.29289C56.5196 6.10536 56.2652 6 56 6H54C53.7348 6 53.4804 6.10536 53.2929 6.29289C53.1054 6.48043 53 6.73478 53 7C53 7.26522 53.1054 7.51957 53.2929 7.70711C53.4804 7.89464 53.7348 8 54 8Z" fill="#0477BD"/>
<path d="M56 14H54C53.7348 14 53.4804 14.1054 53.2929 14.2929C53.1054 14.4804 53 14.7348 53 15C53 15.2652 53.1054 15.5196 53.2929 15.7071C53.4804 15.8946 53.7348 16 54 16H56C56.2652 16 56.5196 15.8946 56.7071 15.7071C56.8946 15.5196 57 15.2652 57 15C57 14.7348 56.8946 14.4804 56.7071 14.2929C56.5196 14.1054 56.2652 14 56 14Z" fill="#0477BD"/>
<path d="M61 2H49C48.7348 2 48.4804 2.10536 48.2929 2.29289C48.1054 2.48043 48 2.73478 48 3V19C48 19.2652 48.1054 19.5196 48.2929 19.7071C48.4804 19.8946 48.7348 20 49 20H61C61.2652 20 61.5196 19.8946 61.7071 19.7071C61.8946 19.5196 62 19.2652 62 19V3C62 2.73478 61.8946 2.48043 61.7071 2.29289C61.5196 2.10536 61.2652 2 61 2ZM60 4V10H50V4H60ZM50 18V12H60V18H50Z" fill="#0477BD"/>
</svg>
