<svg width="18" height="20" viewBox="0 0 18 20" fill="none" xmlns="http://www.w3.org/2000/svg">
<g clip-path="url(#clip0)">
<path d="M17.5964 15.4559L14.8166 12.4622C14.2629 11.8683 13.346 11.8864 12.773 12.5036L11.3726 14.0113C11.2841 13.9588 11.1925 13.904 11.0962 13.8458C10.2118 13.3181 9.00138 12.5949 7.72765 11.2223C6.45014 9.84678 5.77787 8.54135 5.28634 7.5884C5.23448 7.48745 5.18478 7.39011 5.1357 7.29767L6.07563 6.28704L6.53774 5.78882C7.1116 5.17071 7.12742 4.18363 6.57502 3.58807L3.79521 0.594037C3.24281 -0.000683233 2.32548 0.0173588 1.75163 0.635467L0.968179 1.48395L0.989588 1.50683C0.726888 1.86779 0.507367 2.28409 0.344007 2.73303C0.19342 3.16036 0.0996645 3.56814 0.0567947 3.97676C-0.310262 7.25351 1.08029 10.2482 4.85408 14.312C10.0706 19.9288 14.2744 19.5045 14.4558 19.4838C14.8508 19.433 15.2293 19.3313 15.614 19.1705C16.0273 18.9966 16.4136 18.7606 16.7486 18.4783L16.7657 18.4947L17.5594 17.6578C18.1321 17.0398 18.1486 16.0524 17.5964 15.4559Z" fill="white"/>
</g>
<defs>
<clipPath id="clip0">
<rect width="18" height="19.3828" fill="white" transform="translate(0 0.137207)"/>
</clipPath>
</defs>
</svg>
