<svg width="15" height="12" viewBox="0 0 15 12" fill="none" xmlns="http://www.w3.org/2000/svg">
<g clip-path="url(#clip0)">
<path d="M15 5.25V6C15 6.09946 14.9605 6.19484 14.8902 6.26517C14.8198 6.33549 14.7245 6.375 14.625 6.375H13.125V7.875C13.125 7.97446 13.0855 8.06984 13.0152 8.14017C12.9448 8.21049 12.8495 8.25 12.75 8.25H12C11.9005 8.25 11.8052 8.21049 11.7348 8.14017C11.6645 8.06984 11.625 7.97446 11.625 7.875V6.375H10.125C10.0255 6.375 9.93016 6.33549 9.85983 6.26517C9.78951 6.19484 9.75 6.09946 9.75 6V5.25C9.75 5.15054 9.78951 5.05516 9.85983 4.98484C9.93016 4.91451 10.0255 4.875 10.125 4.875H11.625V3.375C11.625 3.27554 11.6645 3.18016 11.7348 3.10984C11.8052 3.03951 11.9005 3 12 3H12.75C12.8495 3 12.9448 3.03951 13.0152 3.10984C13.0855 3.18016 13.125 3.27554 13.125 3.375V4.875H14.625C14.7245 4.875 14.8198 4.91451 14.8902 4.98484C14.9605 5.05516 15 5.15054 15 5.25Z" fill="#27AE60"/>
<path d="M5.25 5.99994C5.84334 5.99994 6.42336 5.82399 6.91671 5.49435C7.41006 5.16471 7.79458 4.69617 8.02164 4.14799C8.2487 3.59981 8.30811 2.99661 8.19236 2.41467C8.0766 1.83273 7.79088 1.29818 7.37132 0.87862C6.95176 0.459062 6.41721 0.17334 5.83527 0.0575845C5.25333 -0.0581712 4.65013 0.00123881 4.10195 0.228302C3.55377 0.455365 3.08524 0.839882 2.75559 1.33323C2.42595 1.82658 2.25 2.4066 2.25 2.99994C2.25 3.79559 2.56607 4.55865 3.12868 5.12126C3.69129 5.68387 4.45435 5.99994 5.25 5.99994ZM7.35 6.74994H6.95859C6.42287 6.99699 5.83994 7.12493 5.25 7.12493C4.66006 7.12493 4.07713 6.99699 3.54141 6.74994H3.15C2.31463 6.75013 1.51352 7.08206 0.922819 7.67276C0.33212 8.26346 0.000186405 9.06457 0 9.89994L0 10.8749C0 11.1733 0.118526 11.4595 0.329505 11.6704C0.540483 11.8814 0.826631 11.9999 1.125 11.9999H9.375C9.67337 11.9999 9.95952 11.8814 10.1705 11.6704C10.3815 11.4595 10.5 11.1733 10.5 10.8749V9.89994C10.4998 9.06457 10.1679 8.26346 9.57718 7.67276C8.98648 7.08206 8.18538 6.75013 7.35 6.74994Z" fill="#27AE60"/>
</g>
<defs>
<clipPath id="clip0">
<rect width="15" height="12" fill="white"/>
</clipPath>
</defs>
</svg>
