<svg width="10" height="13" viewBox="0 0 10 13" fill="none" xmlns="http://www.w3.org/2000/svg">
<path d="M4.84174 6.29964C5.38894 6.29964 5.92385 6.12492 6.37884 5.79756C6.83382 5.4702 7.18843 5.00491 7.39784 4.46054C7.60724 3.91616 7.66203 3.31714 7.55528 2.73923C7.44853 2.16133 7.18502 1.63048 6.79809 1.21384C6.41116 0.797188 5.91818 0.513446 5.38149 0.398493C4.84481 0.28354 4.28851 0.342538 3.78296 0.568027C3.27741 0.793515 2.84531 1.17537 2.5413 1.66529C2.23729 2.15522 2.07503 2.73122 2.07503 3.32045C2.07503 4.11058 2.36652 4.86835 2.88538 5.42706C3.40424 5.98577 4.10796 6.29964 4.84174 6.29964ZM6.77843 7.04444H6.41746C5.9234 7.28978 5.3858 7.41683 4.84174 7.41683C4.29767 7.41683 3.76007 7.28978 3.26601 7.04444H2.90504C2.13463 7.04463 1.39582 7.37426 0.851057 7.96087C0.306293 8.54747 0.000171909 9.34302 0 10.1726L0 11.1408C0 11.4371 0.109309 11.7213 0.303881 11.9308C0.498453 12.1403 0.762349 12.258 1.03751 12.258H8.64596C8.92112 12.258 9.18502 12.1403 9.37959 11.9308C9.57416 11.7213 9.68347 11.4371 9.68347 11.1408V10.1726C9.6833 9.34302 9.37718 8.54747 8.83242 7.96087C8.28765 7.37426 7.54884 7.04463 6.77843 7.04444Z" fill="white"/>
</svg>
